<?xml version="1.0" encoding="utf-8"?>
<!-- Generator: Adobe Illustrator 16.0.0, SVG Export Plug-In . SVG Version: 6.00 Build 0)  -->
<!DOCTYPE svg PUBLIC "-//W3C//DTD SVG 1.1//EN" "http://www.w3.org/Graphics/SVG/1.1/DTD/svg11.dtd">
<svg version="1.1" xmlns="http://www.w3.org/2000/svg" xmlns:xlink="http://www.w3.org/1999/xlink" x="0px" y="0px" width="24px"
	 height="24px" viewBox="0 0 24 24" enable-background="new 0 0 24 24" xml:space="preserve">
<g id="Layer_1" display="none">
	<g transform="translate(0, 0)" display="inline">
		<path fill="#E4DCCA" d="M19.7,4.3c-0.4-0.4-1-0.4-1.4,0L12,10.6L5.7,4.3c-0.4-0.4-1-0.4-1.4,0c-0.4,0.4-0.4,1,0,1.4l6.3,6.3
			l-6.3,6.3c-0.4,0.4-0.4,1,0,1.4C4.5,19.9,4.7,20,5,20s0.5-0.1,0.7-0.3l6.3-6.3l6.3,6.3c0.2,0.2,0.5,0.3,0.7,0.3s0.5-0.1,0.7-0.3
			c0.399-0.4,0.399-1,0-1.4L13.4,12l6.3-6.3C20.1,5.3,20.1,4.7,19.7,4.3z"/>
	</g>
</g>
<g id="Layer_2">
	<path fill="#E4DCCA" d="M11.313,1.855l-9.375,9.438l9.375,9.5v-6.822c0,0,2.987-0.174,4.75,0.072
		c2.236,0.313,2.519,1.606,2.313,3.063S17.625,21.25,17,22.063s3.75-4.707,3.813-5.832s0.563-4.375-2.938-6.5
		c-1.379-0.837-6.563-0.852-6.563-0.852V1.855z"/>
</g>
</svg>
